<?xml version="1.0" encoding="UTF-8" standalone="no"?>
<!-- Created with Inkscape (http://www.inkscape.org/) -->

<svg
   width="2048"
   height="2048"
   id="svg2"
   version="1.1"
   xmlns="http://www.w3.org/2000/svg"
   xmlns:svg="http://www.w3.org/2000/svg"
   xmlns:rdf="http://www.w3.org/1999/02/22-rdf-syntax-ns#"
   xmlns:cc="http://creativecommons.org/ns#"
   xmlns:dc="http://purl.org/dc/elements/1.1/">
  <defs
     id="defs4" />
  <metadata
     id="metadata7">
    <rdf:RDF>
      <cc:Work
         rdf:about="">
        <dc:format>image/svg+xml</dc:format>
        <dc:type
           rdf:resource="http://purl.org/dc/dcmitype/StillImage" />
      </cc:Work>
    </rdf:RDF>
  </metadata>
  <g
     id="layer1"
     transform="translate(-187.29666,1562.9016)">
    <g
       id="g3798"
       transform="matrix(1.000798,0,0,1.0007922,-0.14946163,-0.38430858)">
      <path
         id="rect2985"
         transform="translate(186.47237,-1562.0929)"
         d="M 1389.875,0.8125 C 1339.4591,0.8069875 1289.0443,19.7057 1251.25,57.5 L 822.9375,485.8125 c -75.58842,75.5884 -75.58839,201.69283 0,277.28125 l 28,27.96875 140.5,-140.5 -26.15625,-26.125 424.59375,-424.59375 458.2812,458.28125 -424.5937,424.5938 -26.125,-26.1563 -140.5,140.5 28,28 c 75.5884,75.5884 201.6615,75.5573 277.25,-0.031 L 1990.5,796.75 c 75.5884,-75.58844 75.5884,-201.66154 0,-277.25 L 1528.5,57.53125 C 1490.7058,19.737 1440.2909,0.8180125 1389.875,0.8125 z"
         style="font-size:medium;font-style:normal;font-variant:normal;font-weight:normal;font-stretch:normal;text-indent:0;text-align:start;text-decoration:none;line-height:normal;letter-spacing:normal;word-spacing:normal;text-transform:none;direction:ltr;block-progression:tb;writing-mode:lr-tb;text-anchor:start;baseline-shift:baseline;color:#000000;fill:#8bbee8;fill-opacity:1;stroke:none;stroke-width:198.66053772;marker:none;visibility:visible;display:inline;overflow:visible;enable-background:accumulate;font-family:Sans;-inkscape-font-specification:Sans" />
      <path
         id="use3779"
         transform="translate(186.47237,-1562.0929)"
         d="m 624.4375,766.25 c -50.42147,10e-6 -100.83079,18.8933 -138.625,56.6875 L 57.5,1251.25 c -75.58845,75.5884 -75.55719,201.6616 0.03125,277.25 L 519.5,1990.5 c 75.58843,75.5884 201.66157,75.5884 277.25,0 l 428.2812,-428.3125 c 75.5885,-75.5884 75.6198,-201.6616 0.031,-277.25 l -28,-28 -140.4687,140.4687 26.1562,26.125 -424.625,424.625 L 199.84375,1389.875 624.4375,965.25 650.59375,991.40625 791.0625,850.9375 l -27.96875,-28 C 725.29955,785.1433 674.85897,766.24999 624.4375,766.25 z"
         style="font-size:medium;font-style:normal;font-variant:normal;font-weight:normal;font-stretch:normal;text-indent:0;text-align:start;text-decoration:none;line-height:normal;letter-spacing:normal;word-spacing:normal;text-transform:none;direction:ltr;block-progression:tb;writing-mode:lr-tb;text-anchor:start;baseline-shift:baseline;color:#000000;fill:#8bbee8;fill-opacity:1;stroke:none;stroke-width:198.66053772;marker:none;visibility:visible;display:inline;overflow:visible;enable-background:accumulate;font-family:Sans;-inkscape-font-specification:Sans" />
      <path
         id="rect3785"
         transform="translate(186.47237,-1562.0929)"
         d="m 1206.4688,573.34375 c -11.2793,0 -22.5664,4.50387 -31.5626,13.5 L 586.84375,1174.9062 c -17.99229,17.9923 -17.99229,45.1328 0,63.125 L 810,1461.1875 c 17.99227,17.9923 45.10145,17.961 63.09375,-0.031 L 1461.1562,873.09375 c 17.9922,-17.99226 18.0236,-45.10146 0.031,-63.09375 l -223.156,-223.15625 c -8.9961,-8.99615 -20.2832,-13.5 -31.5624,-13.5 z"
         style="color:#000000;fill:#8bbee8;fill-opacity:1;fill-rule:evenodd;stroke:none;stroke-width:84.67900085;marker:none;visibility:visible;display:inline;overflow:visible;enable-background:accumulate" />
    </g>
  </g>
</svg>
